<svg width="12" height="12" viewBox="0 0 12 12" fill="none" xmlns="http://www.w3.org/2000/svg">
<g clip-path="url(#clip0_2823_1916)">
<path d="M11.932 11.0675C11.0542 9.54992 9.70143 8.46174 8.12276 7.94589C8.90364 7.48102 9.51033 6.77268 9.84968 5.92964C10.189 5.0866 10.2422 4.15547 10.0012 3.27925C9.7601 2.40303 9.23807 1.63017 8.51525 1.07935C7.79243 0.528538 6.90878 0.230225 6 0.230225C5.09122 0.230225 4.20757 0.528538 3.48475 1.07935C2.76193 1.63017 2.2399 2.40303 1.99883 3.27925C1.75776 4.15547 1.81098 5.0866 2.15032 5.92964C2.48966 6.77268 3.09636 7.48102 3.87724 7.94589C2.29857 8.46116 0.945839 9.54934 0.0680322 11.0675C0.0358415 11.12 0.0144896 11.1784 0.0052364 11.2393C-0.00401685 11.3001 -0.000984014 11.3622 0.0141559 11.4219C0.0292959 11.4816 0.0562364 11.5377 0.0933877 11.5868C0.130539 11.6359 0.177149 11.677 0.230467 11.7078C0.283785 11.7386 0.342731 11.7584 0.403828 11.7661C0.464925 11.7737 0.526935 11.7691 0.586198 11.7523C0.645462 11.7356 0.70078 11.7072 0.748887 11.6688C0.796995 11.6304 0.836918 11.5827 0.8663 11.5286C1.95218 9.65193 3.87148 8.53148 6 8.53148C8.12852 8.53148 10.0478 9.65193 11.1337 11.5286C11.1631 11.5827 11.203 11.6304 11.2511 11.6688C11.2992 11.7072 11.3545 11.7356 11.4138 11.7523C11.4731 11.7691 11.5351 11.7737 11.5962 11.7661C11.6573 11.7584 11.7162 11.7386 11.7695 11.7078C11.8229 11.677 11.8695 11.6359 11.9066 11.5868C11.9438 11.5377 11.9707 11.4816 11.9858 11.4219C12.001 11.3622 12.004 11.3001 11.9948 11.2393C11.9855 11.1784 11.9642 11.12 11.932 11.0675ZM2.77235 4.38163C2.77235 3.74326 2.96164 3.11923 3.3163 2.58845C3.67096 2.05766 4.17505 1.64396 4.76483 1.39967C5.35461 1.15538 6.00358 1.09146 6.62968 1.216C7.25579 1.34054 7.8309 1.64794 8.2823 2.09934C8.73369 2.55073 9.0411 3.12585 9.16564 3.75195C9.29018 4.37805 9.22626 5.02703 8.98196 5.6168C8.73767 6.20658 8.32397 6.71067 7.79319 7.06533C7.2624 7.41999 6.63837 7.60929 6 7.60929C5.14425 7.60837 4.32382 7.26802 3.71871 6.66292C3.11361 6.05782 2.77326 5.23738 2.77235 4.38163Z" fill="#727272"/>
</g>
<defs>
<clipPath id="clip0_2823_1916">
<rect width="12" height="11.5394" fill="white" transform="translate(0 0.230225)"/>
</clipPath>
</defs>
</svg>
