<svg width="187" height="37" viewBox="0 0 187 37" fill="none" xmlns="http://www.w3.org/2000/svg">
<path d="M181.682 26.3805C180.386 26.3805 179.21 26.1731 178.155 25.7581C177.118 25.3259 176.228 24.669 175.484 23.7872L177.196 21.8423C177.766 22.482 178.432 23.0179 179.193 23.4501C179.953 23.865 180.844 24.0725 181.864 24.0725C182.573 24.0725 183.135 23.9342 183.549 23.6576C183.982 23.381 184.198 23.0006 184.198 22.5165C184.198 22.2226 184.094 21.9633 183.887 21.7386C183.679 21.4965 183.273 21.315 182.668 21.194L179.945 20.6494C178.562 20.3901 177.576 19.9406 176.988 19.3009C176.418 18.6612 176.133 17.8832 176.133 16.9669C176.133 16.2235 176.34 15.5493 176.755 14.9442C177.17 14.3218 177.775 13.8291 178.57 13.466C179.366 13.0857 180.316 12.8955 181.423 12.8955C182.668 12.8955 183.731 13.103 184.613 13.5179C185.494 13.9155 186.255 14.4947 186.895 15.2554L185.157 17.0966C184.69 16.4742 184.12 15.9988 183.446 15.6703C182.789 15.3418 182.114 15.1776 181.423 15.1776C180.593 15.1776 179.962 15.3245 179.53 15.6184C179.098 15.8951 178.882 16.2754 178.882 16.7595C178.882 17.088 178.994 17.3819 179.219 17.6412C179.443 17.8832 179.876 18.0734 180.515 18.2117L183.601 18.8341C184.829 19.0934 185.702 19.5083 186.221 20.0789C186.739 20.6494 186.998 21.3496 186.998 22.1794C186.998 23.4415 186.532 24.4615 185.598 25.2395C184.665 26.0002 183.359 26.3805 181.682 26.3805Z" fill="white"/>
<path d="M168.856 26.3805C167.819 26.3805 166.92 26.1384 166.159 25.6543C165.399 25.1703 164.837 24.5133 164.474 23.6835L164.344 26.1211L161.906 26.1211L161.906 7.8645L164.681 7.8645L164.681 15.1257C165.096 14.4687 165.684 13.9328 166.444 13.5178C167.205 13.1029 168.061 12.8954 169.012 12.8954C170.084 12.8954 171.043 13.1634 171.89 13.6994C172.755 14.2353 173.429 15.0046 173.913 16.0074C174.397 17.0101 174.639 18.2289 174.639 19.6639C174.639 21.0815 174.38 22.2917 173.861 23.2945C173.343 24.2972 172.642 25.0665 171.761 25.6025C170.879 26.1211 169.911 26.3805 168.856 26.3805ZM168.26 23.9946C169.401 23.9946 170.274 23.6143 170.879 22.8536C171.501 22.0756 171.813 21.0037 171.813 19.638C171.813 18.2722 171.51 17.2003 170.905 16.4223C170.3 15.6443 169.427 15.2553 168.286 15.2553C167.214 15.2553 166.341 15.6616 165.666 16.4742C165.01 17.2694 164.681 18.3413 164.681 19.6898C164.681 21.0383 165.01 22.0929 165.666 22.8536C166.341 23.6143 167.205 23.9946 168.26 23.9946Z" fill="white"/>
<path d="M155.816 17.6412C155.816 16.7941 155.557 16.163 155.038 15.7481C154.519 15.3332 153.854 15.1257 153.041 15.1257C152.159 15.1257 151.468 15.2986 150.967 15.6444C150.482 15.9729 150.111 16.4915 149.851 17.2003L147.336 16.4483C147.699 15.3418 148.356 14.4774 149.307 13.855C150.258 13.2153 151.537 12.8955 153.145 12.8955C154.148 12.8955 155.055 13.0511 155.868 13.3623C156.698 13.6735 157.355 14.1489 157.839 14.7886C158.34 15.4283 158.591 16.2495 158.591 17.2522L158.591 23.1908C158.591 23.8305 158.919 24.1503 159.576 24.1503C159.68 24.1503 159.784 24.1503 159.887 24.1503C160.008 24.1503 160.112 24.133 160.199 24.0984L160.069 26.0693C159.758 26.2249 159.334 26.3114 158.798 26.3286C158.124 26.3286 157.545 26.1903 157.061 25.9137C156.577 25.6198 156.24 25.179 156.049 24.5912C155.617 25.1963 155.029 25.6458 154.286 25.9397C153.56 26.2336 152.782 26.3805 151.952 26.3805C150.482 26.3805 149.35 26.0175 148.555 25.2913C147.76 24.5652 147.362 23.5798 147.362 22.335C147.362 21.1075 147.785 20.1394 148.633 19.4305C149.497 18.7044 150.673 18.3414 152.159 18.3414L155.816 18.3414L155.816 17.6412ZM152.574 24.2281C153.058 24.2281 153.551 24.1417 154.053 23.9688C154.554 23.7959 154.969 23.5106 155.297 23.113C155.643 22.6981 155.816 22.1448 155.816 21.4533L155.816 20.416L152.756 20.416C150.992 20.416 150.111 21.0038 150.111 22.1794C150.111 22.7672 150.292 23.2599 150.655 23.6576C151.036 24.0379 151.675 24.2281 152.574 24.2281Z" fill="white"/>
<path d="M136.181 23.5279L146.32 23.5279L146.32 26.1211L133.328 26.1211L133.328 7.8645L136.181 7.8645L136.181 23.5279Z" fill="white"/>
<path d="M121.605 17.6412C121.605 16.7941 121.346 16.163 120.827 15.7481C120.308 15.3332 119.643 15.1257 118.83 15.1257C117.948 15.1257 117.257 15.2986 116.756 15.6444C116.272 15.9729 115.9 16.4915 115.64 17.2003L113.125 16.4483C113.488 15.3418 114.145 14.4774 115.096 13.855C116.047 13.2153 117.326 12.8955 118.934 12.8955C119.937 12.8955 120.844 13.0511 121.657 13.3623C122.487 13.6735 123.144 14.1489 123.628 14.7886C124.129 15.4283 124.38 16.2495 124.38 17.2522L124.38 23.1908C124.38 23.8305 124.708 24.1503 125.365 24.1503C125.469 24.1503 125.573 24.1503 125.676 24.1503C125.797 24.1503 125.901 24.133 125.988 24.0984L125.858 26.0693C125.547 26.2249 125.123 26.3114 124.587 26.3286C123.913 26.3286 123.334 26.1903 122.85 25.9137C122.366 25.6198 122.029 25.179 121.838 24.5912C121.406 25.1963 120.818 25.6458 120.075 25.9397C119.349 26.2336 118.571 26.3805 117.741 26.3805C116.272 26.3805 115.139 26.0175 114.344 25.2913C113.549 24.5652 113.151 23.5798 113.151 22.335C113.151 21.1075 113.575 20.1394 114.422 19.4305C115.286 18.7044 116.462 18.3414 117.948 18.3414L121.605 18.3414L121.605 17.6412ZM118.363 24.2281C118.847 24.2281 119.34 24.1417 119.842 23.9688C120.343 23.7959 120.758 23.5106 121.086 23.113C121.432 22.6981 121.605 22.1448 121.605 21.4533L121.605 20.416L118.545 20.416C116.782 20.416 115.9 21.0038 115.9 22.1794C115.9 22.7672 116.081 23.2599 116.444 23.6576C116.825 24.0379 117.464 24.2281 118.363 24.2281Z" fill="white"/>
<path d="M99.6289 26.1212L99.6289 13.1548L102.093 13.1548L102.196 15.3073C102.646 14.4774 103.242 13.8723 103.986 13.492C104.746 13.0943 105.593 12.8955 106.527 12.8955C107.461 12.8955 108.299 13.077 109.042 13.4401C109.786 13.7859 110.374 14.3218 110.806 15.0479C111.255 15.7568 111.48 16.6644 111.48 17.7709L111.48 26.1212L108.705 26.1212L108.705 18.5748C108.705 17.3646 108.437 16.5174 107.901 16.0334C107.365 15.5493 106.7 15.3073 105.905 15.3073C105.351 15.3073 104.798 15.4369 104.245 15.6962C103.709 15.9556 103.268 16.3705 102.922 16.941C102.577 17.5115 102.404 18.2722 102.404 19.2231L102.404 26.1212L99.6289 26.1212Z" fill="white"/>
<path d="M89.4957 26.3807C88.6313 26.3807 87.836 26.2251 87.1099 25.9139C86.401 25.5854 85.8305 25.0754 85.3983 24.3839C84.9661 23.6924 84.75 22.802 84.75 21.7128L84.75 13.155L87.5248 13.155L87.5248 20.9867C87.5248 22.1105 87.7755 22.8884 88.2768 23.3207C88.7782 23.7529 89.4784 23.969 90.3774 23.969C90.9652 23.969 91.5184 23.8393 92.0371 23.58C92.5557 23.3034 92.9793 22.8884 93.3078 22.3352C93.6363 21.782 93.8005 21.0559 93.8005 20.1569L93.8005 13.155L96.5753 13.155L96.5753 26.1214L94.1117 26.1214L93.982 24.0468C93.5325 24.8593 92.9274 25.4558 92.1668 25.8361C91.4234 26.1992 90.533 26.3807 89.4957 26.3807Z" fill="white"/>
<path d="M70.3594 26.1211L70.3594 7.8645L73.1342 7.8645L73.1342 15.2553C73.5664 14.4428 74.1455 13.8463 74.8717 13.466C75.6151 13.0856 76.4363 12.8954 77.3353 12.8954C78.2516 12.8954 79.0728 13.077 79.7989 13.44C80.5423 13.7858 81.1301 14.3131 81.5623 15.0219C81.9945 15.7308 82.2106 16.6211 82.2106 17.693L82.2106 26.1211L79.4358 26.1211L79.4358 18.6006C79.4358 17.3732 79.1678 16.5174 78.6319 16.0333C78.096 15.5492 77.439 15.3072 76.661 15.3072C76.0905 15.3072 75.5373 15.4369 75.0013 15.6962C74.4654 15.9555 74.0159 16.3791 73.6528 16.9669C73.3071 17.5374 73.1342 18.3067 73.1342 19.2749L73.1342 26.1211L70.3594 26.1211Z" fill="white"/>
<path d="M64.0816 17.6412C64.0816 16.7941 63.8222 16.163 63.3036 15.7481C62.7849 15.3332 62.1193 15.1257 61.3068 15.1257C60.425 15.1257 59.7335 15.2986 59.2321 15.6444C58.7481 15.9729 58.3764 16.4915 58.117 17.2003L55.6016 16.4483C55.9646 15.3418 56.6216 14.4774 57.5724 13.855C58.5233 13.2153 59.8027 12.8955 61.4105 12.8955C62.4132 12.8955 63.3209 13.0511 64.1334 13.3623C64.9633 13.6735 65.6202 14.1489 66.1043 14.7886C66.6057 15.4283 66.8564 16.2495 66.8564 17.2522L66.8564 23.1908C66.8564 23.8305 67.1848 24.1503 67.8418 24.1503C67.9455 24.1503 68.0493 24.1503 68.153 24.1503C68.274 24.1503 68.3777 24.133 68.4642 24.0984L68.3345 26.0693C68.0233 26.2249 67.5998 26.3114 67.0638 26.3286C66.3896 26.3286 65.8104 26.1903 65.3263 25.9137C64.8422 25.6198 64.5051 25.179 64.315 24.5912C63.8827 25.1963 63.2949 25.6458 62.5515 25.9397C61.8254 26.2336 61.0474 26.3805 60.2176 26.3805C58.7481 26.3805 57.6157 26.0175 56.8204 25.2913C56.0251 24.5652 55.6275 23.5798 55.6275 22.335C55.6275 21.1075 56.0511 20.1394 56.8982 19.4305C57.7626 18.7044 58.9382 18.3414 60.425 18.3414L64.0816 18.3414L64.0816 17.6412ZM60.84 24.2281C61.324 24.2281 61.8168 24.1417 62.3181 23.9688C62.8195 23.7959 63.2344 23.5106 63.5629 23.113C63.9087 22.6981 64.0816 22.1448 64.0816 21.4533L64.0816 20.416L61.0215 20.416C59.2581 20.416 58.3764 21.0038 58.3764 22.1794C58.3764 22.7672 58.5579 23.2599 58.9209 23.6576C59.3013 24.0379 59.941 24.2281 60.84 24.2281Z" fill="white"/>
<path d="M43.1196 7.8645L43.1196 17.2262L51.47 7.8645L54.8412 7.8645L48.2024 15.3591L55.308 26.1211L51.8849 26.1211L46.2316 17.3559L43.1196 20.8049L43.1196 26.1211L40.293 26.1211L40.293 7.8645L43.1196 7.8645Z" fill="white"/>
<path d="M18.5966 -0.000488281V9.4443L12.3984 12.9861V-0.000488281H18.5966Z" fill="white"/>
<path d="M33.0561 8.26372L18.5938 16.5279V9.44432L26.8579 4.72192L33.0561 8.26372Z" fill="#052AD3"/>
<path d="M6.19814 16.5276L12.3963 20.0694L0 27.153V20.0694L6.19814 16.5276Z" fill="#052AD3"/>
<path d="M33.0589 24.7918L18.5966 16.5276L12.3984 20.0694L26.8608 28.3336L33.0589 24.7918Z" fill="#052AD3"/>
<path d="M12.3963 12.9879V20.0715L0 12.9879V5.9043L12.3963 12.9879Z" fill="white"/>
<path d="M12.3984 36.5999L18.5966 33.0581V23.6133L12.3984 20.0715V36.5999Z" fill="white"/>
</svg>
