<svg width="142" height="28" viewBox="0 0 142 28" fill="none" xmlns="http://www.w3.org/2000/svg">
<path d="M137.96 20.031C136.976 20.031 136.083 19.8734 135.282 19.5584C134.495 19.2302 133.818 18.7313 133.254 18.0617L134.554 16.5848C134.987 17.0706 135.492 17.4775 136.07 17.8057C136.648 18.1208 137.324 18.2784 138.098 18.2784C138.636 18.2784 139.063 18.1733 139.378 17.9633C139.706 17.7532 139.87 17.4644 139.87 17.0968C139.87 16.8736 139.792 16.6767 139.634 16.5061C139.477 16.3223 139.168 16.1844 138.709 16.0925L136.641 15.679C135.591 15.4821 134.842 15.1407 134.396 14.655C133.963 14.1693 133.746 13.5785 133.746 12.8827C133.746 12.3182 133.904 11.8062 134.219 11.3467C134.534 10.8741 134.993 10.4999 135.597 10.2242C136.201 9.93543 136.923 9.79102 137.763 9.79102C138.709 9.79102 139.516 9.94855 140.186 10.2636C140.855 10.5656 141.433 11.0054 141.918 11.583L140.599 12.9812C140.245 12.5085 139.811 12.1475 139.299 11.8981C138.801 11.6486 138.289 11.5239 137.763 11.5239C137.133 11.5239 136.654 11.6355 136.326 11.8587C135.998 12.0687 135.834 12.3576 135.834 12.7252C135.834 12.9746 135.919 13.1978 136.09 13.3947C136.26 13.5785 136.588 13.7229 137.074 13.8279L139.418 14.3005C140.35 14.4975 141.013 14.8125 141.406 15.2458C141.8 15.679 141.997 16.2107 141.997 16.8408C141.997 17.7992 141.643 18.5737 140.934 19.1645C140.225 19.7421 139.234 20.031 137.96 20.031Z" fill="#FAFAFA"/>
<path d="M128.223 20.0309C127.435 20.0309 126.752 19.8472 126.175 19.4796C125.597 19.112 125.171 18.6131 124.895 17.983L124.796 19.834L122.945 19.834L122.945 5.9707L125.052 5.9707L125.052 11.4845C125.367 10.9857 125.814 10.5787 126.391 10.2636C126.969 9.94853 127.619 9.79099 128.341 9.79099C129.155 9.79099 129.884 9.99448 130.527 10.4015C131.183 10.8084 131.695 11.3926 132.063 12.1541C132.43 12.9155 132.614 13.841 132.614 14.9307C132.614 16.0072 132.417 16.9261 132.023 17.6876C131.63 18.449 131.098 19.0332 130.428 19.4402C129.759 19.834 129.024 20.0309 128.223 20.0309ZM127.77 18.2193C128.636 18.2193 129.299 17.9304 129.759 17.3528C130.231 16.762 130.468 15.9481 130.468 14.911C130.468 13.8738 130.238 13.0599 129.779 12.4691C129.319 11.8784 128.656 11.583 127.79 11.583C126.976 11.583 126.313 11.8915 125.801 12.5085C125.302 13.1124 125.052 13.9264 125.052 14.9504C125.052 15.9743 125.302 16.7752 125.801 17.3528C126.313 17.9304 126.969 18.2193 127.77 18.2193Z" fill="#FAFAFA"/>
<path d="M118.318 13.3947C118.318 12.7514 118.121 12.2722 117.727 11.9572C117.334 11.6421 116.828 11.4845 116.211 11.4845C115.542 11.4845 115.017 11.6158 114.636 11.8784C114.268 12.1278 113.986 12.5217 113.789 13.0599L111.879 12.4888C112.155 11.6486 112.653 10.9922 113.376 10.5196C114.098 10.0339 115.069 9.79102 116.29 9.79102C117.051 9.79102 117.741 9.90917 118.358 10.1455C118.988 10.3818 119.487 10.7428 119.854 11.2285C120.235 11.7143 120.425 12.3379 120.425 13.0993L120.425 17.6088C120.425 18.0946 120.675 18.3374 121.174 18.3374C121.252 18.3374 121.331 18.3374 121.41 18.3374C121.502 18.3374 121.581 18.3243 121.646 18.2981L121.548 19.7947C121.311 19.9128 120.99 19.9785 120.583 19.9916C120.071 19.9916 119.631 19.8866 119.263 19.6765C118.896 19.4533 118.64 19.1186 118.495 18.6722C118.167 19.1317 117.721 19.473 117.156 19.6962C116.605 19.9194 116.014 20.031 115.384 20.031C114.268 20.031 113.408 19.7553 112.804 19.2039C112.201 18.6525 111.899 17.9042 111.899 16.959C111.899 16.0269 112.22 15.2917 112.864 14.7535C113.52 14.2021 114.413 13.9264 115.542 13.9264L118.318 13.9264L118.318 13.3947ZM115.857 18.3965C116.224 18.3965 116.598 18.3309 116.979 18.1996C117.36 18.0683 117.675 17.8517 117.924 17.5497C118.187 17.2347 118.318 16.8146 118.318 16.2894L118.318 15.5018L115.995 15.5018C114.656 15.5018 113.986 15.9481 113.986 16.8408C113.986 17.2872 114.124 17.6613 114.4 17.9633C114.688 18.2521 115.174 18.3965 115.857 18.3965Z" fill="#FAFAFA"/>
<path d="M103.408 17.8648L111.108 17.8648L111.108 19.834L101.242 19.834L101.242 5.9707L103.408 5.9707L103.408 17.8648Z" fill="#FAFAFA"/>
<path d="M92.3456 13.3947C92.3456 12.7514 92.1487 12.2722 91.7548 11.9572C91.361 11.6421 90.8556 11.4845 90.2385 11.4845C89.569 11.4845 89.0439 11.6158 88.6632 11.8784C88.2956 12.1278 88.0133 12.5217 87.8164 13.0599L85.9062 12.4888C86.1819 11.6486 86.6808 10.9922 87.4029 10.5196C88.1249 10.0339 89.0964 9.79102 90.3173 9.79102C91.0787 9.79102 91.768 9.90917 92.385 10.1455C93.0151 10.3818 93.514 10.7428 93.8816 11.2285C94.2623 11.7143 94.4527 12.3379 94.4527 13.0993L94.4527 17.6088C94.4527 18.0946 94.7021 18.3374 95.201 18.3374C95.2797 18.3374 95.3585 18.3374 95.4373 18.3374C95.5292 18.3374 95.6079 18.3243 95.6736 18.2981L95.5751 19.7947C95.3388 19.9128 95.0172 19.9785 94.6102 19.9916C94.0982 19.9916 93.6584 19.8866 93.2908 19.6765C92.9232 19.4533 92.6672 19.1186 92.5228 18.6722C92.1946 19.1317 91.7483 19.473 91.1838 19.6962C90.6324 19.9194 90.0416 20.031 89.4115 20.031C88.2956 20.031 87.4357 19.7553 86.8318 19.2039C86.2279 18.6525 85.9259 17.9042 85.9259 16.959C85.9259 16.0269 86.2476 15.2917 86.8909 14.7535C87.5473 14.2021 88.44 13.9264 89.569 13.9264L92.3456 13.9264L92.3456 13.3947ZM89.8841 18.3965C90.2517 18.3965 90.6258 18.3309 91.0065 18.1996C91.3873 18.0683 91.7023 17.8517 91.9518 17.5497C92.2143 17.2347 92.3456 16.8146 92.3456 16.2894L92.3456 15.5018L90.0219 15.5018C88.6829 15.5018 88.0133 15.9481 88.0133 16.8408C88.0133 17.2872 88.1512 17.6613 88.4269 17.9633C88.7157 18.2521 89.2014 18.3965 89.8841 18.3965Z" fill="#FAFAFA"/>
<path d="M75.6562 19.834L75.6562 9.98794L77.527 9.98794L77.6058 11.6224C77.9471 10.9922 78.4 10.5328 78.9645 10.2439C79.5422 9.94199 80.1855 9.79102 80.8944 9.79102C81.6033 9.79102 82.24 9.92886 82.8045 10.2046C83.369 10.4671 83.8154 10.8741 84.1436 11.4255C84.4849 11.9637 84.6556 12.653 84.6556 13.4932L84.6556 19.834L82.5485 19.834L82.5485 14.1036C82.5485 13.1846 82.345 12.5414 81.9381 12.1738C81.5311 11.8062 81.0257 11.6224 80.4218 11.6224C80.0017 11.6224 79.5816 11.7209 79.1615 11.9178C78.7545 12.1147 78.4197 12.4298 78.1572 12.863C77.8946 13.2962 77.7633 13.8739 77.7633 14.5959L77.7633 19.834L75.6562 19.834Z" fill="#FAFAFA"/>
<path d="M67.9591 20.0313C67.3027 20.0313 66.6988 19.9132 66.1475 19.6769C65.6092 19.4274 65.176 19.0401 64.8478 18.515C64.5196 17.9899 64.3555 17.3138 64.3555 16.4867L64.3555 9.98828L66.4625 9.98828L66.4625 15.9353C66.4625 16.7887 66.6529 17.3794 67.0336 17.7076C67.4143 18.0358 67.946 18.1999 68.6287 18.1999C69.075 18.1999 69.4951 18.1015 69.889 17.9046C70.2828 17.6945 70.6045 17.3794 70.8539 16.9593C71.1033 16.5392 71.2281 15.9878 71.2281 15.3052L71.2281 9.98828L73.3351 9.98828L73.3351 19.8344L71.4644 19.8344L71.3659 18.259C71.0246 18.876 70.5651 19.329 69.9874 19.6178C69.4229 19.8935 68.7468 20.0313 67.9591 20.0313Z" fill="#FAFAFA"/>
<path d="M53.4297 19.834L53.4297 5.9707L55.5368 5.9707L55.5368 11.583C55.865 10.966 56.3047 10.513 56.8561 10.2242C57.4206 9.9354 58.0442 9.79099 58.7269 9.79099C59.4227 9.79099 60.0463 9.92884 60.5977 10.2045C61.1622 10.4671 61.6085 10.8675 61.9367 11.4058C62.2649 11.944 62.429 12.6201 62.429 13.4341L62.429 19.834L60.322 19.834L60.322 14.1233C60.322 13.1912 60.1185 12.5413 59.7115 12.1738C59.3045 11.8062 58.8057 11.6224 58.2149 11.6224C57.7817 11.6224 57.3616 11.7208 56.9546 11.9178C56.5476 12.1147 56.2063 12.4363 55.9306 12.8827C55.668 13.3159 55.5368 13.9001 55.5368 14.6353L55.5368 19.834L53.4297 19.834Z" fill="#FAFAFA"/>
<path d="M48.6581 13.3947C48.6581 12.7514 48.4612 12.2722 48.0673 11.9572C47.6735 11.6421 47.1681 11.4845 46.551 11.4845C45.8815 11.4845 45.3564 11.6158 44.9757 11.8784C44.6081 12.1278 44.3258 12.5217 44.1289 13.0599L42.2187 12.4888C42.4944 11.6486 42.9933 10.9922 43.7154 10.5196C44.4374 10.0339 45.4089 9.79102 46.6298 9.79102C47.3912 9.79102 48.0805 9.90917 48.6975 10.1455C49.3276 10.3818 49.8265 10.7428 50.1941 11.2285C50.5748 11.7143 50.7652 12.3379 50.7652 13.0993L50.7652 17.6088C50.7652 18.0946 51.0146 18.3374 51.5135 18.3374C51.5922 18.3374 51.671 18.3374 51.7498 18.3374C51.8417 18.3374 51.9204 18.3243 51.9861 18.2981L51.8876 19.7947C51.6513 19.9128 51.3297 19.9785 50.9227 19.9916C50.4107 19.9916 49.9709 19.8866 49.6033 19.6765C49.2357 19.4533 48.9797 19.1186 48.8353 18.6722C48.5071 19.1317 48.0608 19.473 47.4963 19.6962C46.9449 19.9194 46.3541 20.031 45.724 20.031C44.6081 20.031 43.7482 19.7553 43.1443 19.2039C42.5404 18.6525 42.2384 17.9042 42.2384 16.959C42.2384 16.0269 42.5601 15.2917 43.2034 14.7535C43.8598 14.2021 44.7525 13.9264 45.8815 13.9264L48.6581 13.9264L48.6581 13.3947ZM46.1966 18.3965C46.5642 18.3965 46.9383 18.3309 47.319 18.1996C47.6997 18.0683 48.0148 17.8517 48.2643 17.5497C48.5268 17.2347 48.6581 16.8146 48.6581 16.2894L48.6581 15.5018L46.3344 15.5018C44.9954 15.5018 44.3258 15.9481 44.3258 16.8408C44.3258 17.2872 44.4637 17.6613 44.7394 17.9633C45.0282 18.2521 45.5139 18.3965 46.1966 18.3965Z" fill="#FAFAFA"/>
<path d="M32.7441 5.9707L32.7441 13.0796L39.085 5.9707L41.645 5.97071L36.6038 11.6618L41.9994 19.834L39.4001 19.834L35.1072 13.1781L32.7441 15.7971L32.7441 19.834L30.5977 19.834L30.5977 5.9707L32.7441 5.9707Z" fill="#FAFAFA"/>
<path d="M14.1207 0V7.17198L9.41406 9.86147V0H14.1207Z" fill="#FAFAFA"/>
<path d="M25.1032 6.27738L14.1211 12.5529V7.17388L20.3966 3.58789L25.1032 6.27738Z" fill="#FAFAFA"/>
<path d="M4.70661 12.5527L9.41322 15.2422L0 20.6212V15.2422L4.70661 12.5527Z" fill="#FAFAFA"/>
<path d="M25.1028 18.8282L14.1207 12.5527L9.41406 15.2422L20.3962 21.5177L25.1028 18.8282Z" fill="#FAFAFA"/>
<path d="M9.41322 9.86336V15.2423L0 9.86336V4.48438L9.41322 9.86336Z" fill="#FAFAFA"/>
<path d="M9.41406 27.7932L14.1207 25.1037V17.9317L9.41406 15.2422V27.7932Z" fill="#FAFAFA"/>
</svg>
